Coordinates
version=1
nRows=4
nColumns=124
inDegrees=yes

Units are S.I. units (second, meters, Newtons, ...)
If the header above contains a line with 'inDegrees', this indicates whether rotational values are in degrees (yes) or radians (no).

endheader 
time	pelvis_tilt	pelvis_list	pelvis_rotation	pelvis_tx	pelvis_ty	pelvis_tz	hip_flexion_l	hip_adduction_l	hip_rotation_l	hip_flexion_r	hip_adduction_r	hip_rotation_r	knee_angle_l	knee_angle_r	ankle_angle_l	ankle_angle_r	subtalar_angle_l	subtalar_angle_r	mtp_angle_l	mtp_angle_r	lumbar_extension	lumbar_bending	lumbar_rotation	arm_flex_l	arm_add_l	arm_rot_l	arm_flex_r	arm_add_r	arm_rot_r	elbow_flex_l	elbow_flex_r	glut_med1_l/activation	glut_med2_l/activation	glut_med3_l/activation	glut_min1_l/activation	glut_min2_l/activation	glut_min3_l/activation	semimem_l/activation	semiten_l/activation	bifemlh_l/activation	bifemsh_l/activation	sar_l/activation	add_long_l/activation	add_brev_l/activation	add_mag1_l/activation	add_mag2_l/activation	add_mag3_l/activation	tfl_l/activation	pect_l/activation	grac_l/activation	glut_max1_l/activation	glut_max2_l/activation	glut_max3_l/activation	iliacus_l/activation	psoas_l/activation	quad_fem_l/activation	gem_l/activation	peri_l/activation	rect_fem_l/activation	vas_med_l/activation	vas_int_l/activation	vas_lat_l/activation	med_gas_l/activation	lat_gas_l/activation	soleus_l/activation	tib_post_l/activation	flex_dig_l/activation	flex_hal_l/activation	tib_ant_l/activation	per_brev_l/activation	per_long_l/activation	per_tert_l/activation	ext_dig_l/activation	ext_hal_l/activation	ercspn_l/activation	intobl_l/activation	extobl_l/activation	glut_med1_r/activation	glut_med2_r/activation	glut_med3_r/activation	glut_min1_r/activation	glut_min2_r/activation	glut_min3_r/activation	semimem_r/activation	semiten_r/activation	bifemlh_r/activation	bifemsh_r/activation	sar_r/activation	add_long_r/activation	add_brev_r/activation	add_mag1_r/activation	add_mag2_r/activation	add_mag3_r/activation	tfl_r/activation	pect_r/activation	grac_r/activation	glut_max1_r/activation	glut_max2_r/activation	glut_max3_r/activation	iliacus_r/activation	psoas_r/activation	quad_fem_r/activation	gem_r/activation	peri_r/activation	rect_fem_r/activation	vas_med_r/activation	vas_int_r/activation	vas_lat_r/activation	med_gas_r/activation	lat_gas_r/activation	soleus_r/activation	tib_post_r/activation	flex_dig_r/activation	flex_hal_r/activation	tib_ant_r/activation	per_brev_r/activation	per_long_r/activation	per_tert_r/activation	ext_dig_r/activation	ext_hal_r/activation	ercspn_r/activation	intobl_r/activation	extobl_r/activation	
          0.40565551	         -6.79849318	         -2.76216658	          1.62024869	          0.28784188	          1.01267371	         -0.01344771	         12.67327681	          4.18595020	         14.53181842	          6.49570842	          5.52768710	         -0.73311539	        -10.18711037	        -40.90351277	          8.41211884	         11.36801036	         -9.88660566	          4.37802388	          2.58935274	          2.45587534	          3.54492268	         -0.08280689	          9.46940998	        -14.47816295	        -13.46348883	         19.34869374	         -4.01602577	        -13.46345046	         19.34888390	          8.44315090	         70.45098891	          0.62564169	          0.49206906	          0.45035871	          0.41992687	          0.45817117	          0.46882455	          0.06877079	          0.05000472	          0.06032095	          0.05000091	          0.05000238	          0.05000021	          0.05000028	          0.05000079	          0.05000134	          0.05000403	          0.23771390	          0.05000115	          0.05000072	          0.25697753	          0.17648448	          0.05000170	          0.05000023	          0.05000024	          0.05000043	          0.05000388	          0.36123771	          0.07086780	          0.11484389	          0.12212644	          0.10224674	          0.08147770	          0.05000147	          0.07114760	          0.26347309	          0.10956139	          0.09660446	          0.13627960	          0.05000086	          0.05000045	          0.05000307	          0.05000217	          0.05001208	          0.05000008	          0.05000007	          0.05000010	          0.05000055	          0.05000023	          0.05000015	          0.05001309	          0.05000160	          0.05000063	          0.05000405	          0.05459997	          0.05000035	          0.32588793	          0.14330394	          0.19042316	          0.25276350	          0.05001729	          0.05000471	          0.05000036	          0.23076027	          0.17792188	          0.22585423	          0.05000046	          0.05000023	          0.05000023	          0.14169864	          0.15852739	          0.05000114	          0.05000151	          0.05000036	          0.05000046	          0.05000011	          0.05000010	          0.05000007	          0.05000011	          0.05000023	          0.05000002	          0.05000017	          0.05000092	          0.05000064	          0.31227277	          0.13929049	          0.05068786	          0.36859034	          0.45309037	          0.36304263	          0.09331343	          0.11560647	          0.05041567	
          0.43946013	         -6.74542166	         -3.26797179	          2.20456205	          0.30363559	          1.01412233	         -0.01479056	         11.45639880	          3.63218067	         14.75065346	          9.40779695	          5.92355452	         -1.05078126	         -9.70003750	        -41.18475274	          8.62104911	         13.29334519	         -9.60657712	          3.33884156	          3.28301089	          1.50877142	          3.16896027	          0.24619399	          9.28448341	        -14.46550544	        -13.46344454	         19.34862901	         -2.79774932	        -13.46345122	         19.34892888	          8.83974354	         71.77469524	          0.62986041	          0.49693227	          0.45378060	          0.42217428	          0.45891550	          0.46947561	          0.05831838	          0.05000213	          0.05001696	          0.05000120	          0.05000398	          0.05000021	          0.05000028	          0.05000073	          0.05000123	          0.05000172	          0.27983938	          0.05000115	          0.05000073	          0.24438323	          0.16530929	          0.05000096	          0.05000029	          0.05000030	          0.05000044	          0.05000408	          0.36731398	          0.10749522	          0.08958050	          0.09558126	          0.08094069	          0.11560942	          0.07343418	          0.07863037	          0.26688516	          0.10298383	          0.09235064	          0.11314375	          0.05000095	          0.05000051	          0.05000307	          0.05000195	          0.05000850	          0.05000009	          0.05000007	          0.05000011	          0.05000046	          0.05000022	          0.05000014	          0.05001052	          0.05000158	          0.05000063	          0.05000201	          0.05000044	          0.05000019	          0.37691621	          0.15677835	          0.19831705	          0.26270525	          0.05001036	          0.05000347	          0.05000027	          0.24139318	          0.17806479	          0.22329990	          0.05000034	          0.05000017	          0.05000017	          0.12956128	          0.14580009	          0.05000119	          0.05000158	          0.05000036	          0.05000044	          0.05000013	          0.05000012	          0.05000008	          0.05000009	          0.05000018	          0.05000002	          0.05000015	          0.05000077	          0.05000058	          0.34930561	          0.16358720	          0.06858200	          0.37818680	          0.43779111	          0.36984459	          0.09202565	          0.11898015	          0.05077035	
          0.47326476	         -6.68560326	         -3.71996531	          2.77061168	          0.31867505	          1.01527693	         -0.01588026	         10.34293481	          3.11730472	         14.90172584	         12.50766013	          6.22972519	         -1.24019281	         -9.31015588	        -40.88568241	          8.75057356	         14.88132522	         -9.41009900	          2.19620470	          4.15453340	          0.89198240	          2.75588346	          0.55392519	          8.95765766	        -14.22008322	        -13.46345516	         19.34859112	         -1.34814187	        -13.46349267	         19.34892252	          9.72074639	         72.05352591	          0.63116551	          0.50326284	          0.46239056	          0.42207461	          0.46273763	          0.47253989	          0.05000160	          0.05000111	          0.05000093	          0.05000159	          0.05002240	          0.05000021	          0.05000028	          0.05000067	          0.05000111	          0.05000095	          0.31872277	          0.05000116	          0.05000073	          0.22940346	          0.14857570	          0.05000064	          0.05000042	          0.05000044	          0.05000048	          0.05000454	          0.37312670	          0.14519807	          0.06475473	          0.07015643	          0.05879790	          0.14681510	          0.10803583	          0.08494758	          0.26918795	          0.09188936	          0.08234200	          0.08945117	          0.05000111	          0.05000063	          0.05000320	          0.05000194	          0.05000697	          0.05000009	          0.05000007	          0.05000012	          0.05000030	          0.05000021	          0.05000016	          0.05000299	          0.05000134	          0.05000066	          0.05000075	          0.05000027	          0.05000012	          0.39379411	          0.17652231	          0.21101801	          0.26270304	          0.05000710	          0.05000231	          0.05000020	          0.24037808	          0.17036611	          0.14399115	          0.05000027	          0.05000014	          0.05000014	          0.12751776	          0.14237540	          0.05000177	          0.05000239	          0.05000044	          0.05000047	          0.05000016	          0.05000014	          0.05000011	          0.05000008	          0.05000017	          0.05000002	          0.05000016	          0.05000079	          0.05000059	          0.37694128	          0.17845231	          0.08648883	          0.37687513	          0.42119400	          0.36026290	          0.09133166	          0.11965259	          0.05001011	
          0.50706939	         -6.62160844	         -4.10891297	          3.32018701	          0.33330112	          1.01615938	         -0.01672445	          9.30522216	          2.65463945	         14.99986709	         15.63295541	          6.41101775	         -1.29078578	         -9.01018952	        -40.01366284	          8.83757723	         15.91408935	         -9.29902319	          1.12286965	          5.15762571	          0.50777150	          2.33489482	          0.82322189	          8.50200379	        -13.75034509	        -13.46342423	         19.34868518	          0.23250272	        -13.46356474	         19.34892559	         10.99379406	         71.27271139	          0.62499566	          0.50532938	          0.46726111	          0.42149142	          0.46278282	          0.46897923	          0.05000067	          0.05000080	          0.05000056	          0.05000189	          0.08269715	          0.05000022	          0.05000029	          0.05000064	          0.05000106	          0.05000072	          0.35252807	          0.05000118	          0.05000073	          0.21302431	          0.12957831	          0.05000053	          0.05000063	          0.05000069	          0.05000051	          0.05000497	          0.37677853	          0.17872404	          0.05003198	          0.05012817	          0.05001279	          0.17584839	          0.14176235	          0.09138122	          0.27225350	          0.07748676	          0.07059960	          0.06684827	          0.05000141	          0.05000081	          0.05000357	          0.05000213	          0.05000633	          0.05000009	          0.05000007	          0.05000012	          0.05000023	          0.05000022	          0.05000019	          0.05000169	          0.05000117	          0.05000073	          0.05000026	          0.05000018	          0.05000008	          0.37397928	          0.19449198	          0.22366329	          0.24601684	          0.05000499	          0.05000155	          0.05000016	          0.23459156	          0.14910009	          0.09210239	          0.05000024	          0.05000012	          0.05000012	          0.13467693	          0.15109167	          0.06078917	          0.05000700	          0.05000059	          0.05000052	          0.05000021	          0.05000019	          0.05000014	          0.05000009	          0.05000019	          0.05000003	          0.05000019	          0.05000091	          0.05000069	          0.38804097	          0.18449087	          0.10166959	          0.34002911	          0.40365301	          0.32442854	          0.08968973	          0.11915566	          0.05001064	
